<?xml version="1.0" encoding="UTF-8" standalone="no"?>
<!-- Generator: Adobe Illustrator 21.1.0, SVG Export Plug-In . SVG Version: 6.00 Build 0)  -->

<svg
   xmlns:dc="http://purl.org/dc/elements/1.1/"
   xmlns:cc="http://creativecommons.org/ns#"
   xmlns:rdf="http://www.w3.org/1999/02/22-rdf-syntax-ns#"
   xmlns:svg="http://www.w3.org/2000/svg"
   xmlns="http://www.w3.org/2000/svg"
   xmlns:sodipodi="http://sodipodi.sourceforge.net/DTD/sodipodi-0.dtd"
   xmlns:inkscape="http://www.inkscape.org/namespaces/inkscape"
   version="1.1"
   id="Capa_1"
   x="0px"
   y="0px"
   viewBox="0 0 390 41"
   xml:space="preserve"
   sodipodi:docname="logo-infotec02.svg"
   width="390"
   height="41"
   inkscape:version="0.92.2 5c3e80d, 2017-08-06"><metadata
     id="metadata29"><rdf:RDF><cc:Work
         rdf:about=""><dc:format>image/svg+xml</dc:format><dc:type
           rdf:resource="http://purl.org/dc/dcmitype/StillImage" /><dc:title></dc:title></cc:Work></rdf:RDF></metadata><defs
     id="defs27" /><sodipodi:namedview
     pagecolor="#ffffff"
     bordercolor="#666666"
     borderopacity="1"
     objecttolerance="10"
     gridtolerance="10"
     guidetolerance="10"
     inkscape:pageopacity="0"
     inkscape:pageshadow="2"
     inkscape:window-width="937"
     inkscape:window-height="472"
     id="namedview25"
     showgrid="false"
     inkscape:pagecheckerboard="true"
     inkscape:zoom="1.558943"
     inkscape:cx="246.23328"
     inkscape:cy="26.530415"
     inkscape:window-x="1420"
     inkscape:window-y="481"
     inkscape:window-maximized="0"
     inkscape:current-layer="Capa_1" /><style
     type="text/css"
     id="style2">
	.st0{fill-rule:evenodd;clip-rule:evenodd;fill:#005488;}
	.st1{fill-rule:evenodd;clip-rule:evenodd;fill:#609422;}
</style><g
     id="g22"
     transform="matrix(0.40772069,0,0,0.40772069,-0.03702667,2.6594521)"><path
       class="st0"
       d="m 110.7,38.4 c 0,-2.2 -0.8,-4.2 -2.4,-5.8 -1.6,-1.6 -3.5,-2.4 -5.8,-2.4 V 61 c 0,2.2 0.8,4.2 2.4,5.8 1.6,1.6 3.5,2.4 5.8,2.4 z"
       id="path4"
       inkscape:connector-curvature="0"
       style="clip-rule:evenodd;fill:#005488;fill-rule:evenodd" /><path
       class="st0"
       d="m 145.5,49.7 c 0,-3.2 -1.1,-5.9 -3.4,-8.3 -2.2,-2.3 -4.9,-3.5 -8.1,-3.5 -3.2,0 -5.9,1.2 -8.2,3.5 -2.2,2.3 -3.4,5.1 -3.4,8.3 V 61 c 0,2.2 -0.8,4.2 -2.4,5.8 -1.6,1.6 -3.5,2.4 -5.8,2.4 V 49.7 c 0,-5.4 1.9,-10 5.8,-13.8 3.9,-3.8 8.5,-5.7 13.9,-5.7 5.4,0 10,1.9 13.9,5.7 3.9,3.8 5.8,8.4 5.8,13.8 v 19.4 c -2.2,0 -4.2,-0.8 -5.8,-2.4 -1.6,-1.6 -2.4,-3.5 -2.4,-5.8 V 49.7 Z"
       id="path6"
       inkscape:connector-curvature="0"
       style="clip-rule:evenodd;fill:#005488;fill-rule:evenodd" /><path
       class="st0"
       d="m 174.4,45.8 h 14.2 c 0,2.2 -0.8,4 -2.3,5.5 -1.5,1.5 -3.4,2.3 -5.5,2.3 h -6.5 c -1.1,0 -2,-0.4 -2.7,-1.1 -0.7,-0.7 -1.1,-1.6 -1.1,-2.7 0,-1.1 0.4,-2 1.1,-2.8 0.8,-0.8 1.7,-1.2 2.8,-1.2 z m -8.7,3.8 c 0,-3.2 1.1,-6 3.4,-8.2 2.2,-2.3 5,-3.4 8.2,-3.4 h 3.7 c 2.1,0 4,-0.8 5.5,-2.3 1.5,-1.5 2.3,-3.3 2.3,-5.5 h -11.5 c -5.4,0 -10,1.9 -13.9,5.7 -3.9,3.8 -5.8,8.4 -5.8,13.7 v 19.5 c 2.2,0 4.2,-0.8 5.8,-2.4 1.6,-1.6 2.4,-3.5 2.4,-5.8 V 49.6 Z"
       id="path8"
       inkscape:connector-curvature="0"
       style="clip-rule:evenodd;fill:#005488;fill-rule:evenodd" /><path
       class="st0"
       d="m 209.6,30.2 c 5.4,0 10,1.9 13.9,5.7 3.9,3.8 5.8,8.4 5.8,13.8 0,5.4 -1.9,10 -5.8,13.7 -3.9,3.8 -8.5,5.7 -13.9,5.7 -5.4,0 -10,-1.9 -13.9,-5.7 -3.9,-3.8 -5.8,-8.4 -5.8,-13.7 0,-5.4 1.9,-10 5.8,-13.8 3.9,-3.8 8.5,-5.7 13.9,-5.7 z m 0,7.8 c -3.2,0 -5.9,1.2 -8.1,3.5 -2.2,2.3 -3.3,5.1 -3.3,8.3 0,3.2 1.1,6 3.3,8.2 2.2,2.3 4.9,3.4 8.1,3.4 3.2,0 5.9,-1.1 8.2,-3.4 2.2,-2.3 3.4,-5 3.4,-8.2 0,-3.2 -1.1,-6 -3.4,-8.3 -2.3,-2.4 -5,-3.5 -8.2,-3.5 z"
       id="path10"
       inkscape:connector-curvature="0"
       style="clip-rule:evenodd;fill:#005488;fill-rule:evenodd" /><path
       class="st0"
       d="m 263.9,30.8 c 0,2.1 -0.8,4 -2.3,5.5 -1.5,1.5 -3.3,2.3 -5.5,2.3 h -7.8 v 30.6 c -2.2,0 -4.2,-0.8 -5.8,-2.4 -1.6,-1.6 -2.4,-3.5 -2.4,-5.8 V 38.5 h -7.8 c -2.1,0 -4,-0.8 -5.5,-2.3 -1.5,-1.5 -2.3,-3.3 -2.3,-5.5 h 39.4 z"
       id="path12"
       inkscape:connector-curvature="0"
       style="clip-rule:evenodd;fill:#005488;fill-rule:evenodd" /><path
       class="st0"
       d="m 281.8,69.1 c -5.4,0 -10,-1.9 -13.9,-5.7 -3.9,-3.8 -5.8,-8.4 -5.8,-13.7 0,-5.4 1.9,-10 5.8,-13.8 3.9,-3.8 8.5,-5.7 13.9,-5.7 h 11.5 c 0,2.1 -0.8,4 -2.3,5.5 -1.5,1.5 -3.4,2.3 -5.5,2.3 h -3.7 c -3.2,0 -5.9,1.2 -8.1,3.5 -2.2,2.3 -3.4,5.1 -3.4,8.3 0,3.2 1.1,5.9 3.4,8.2 2.2,2.3 4.9,3.5 8.1,3.5 h 3.7 c 2.1,0 4,0.8 5.5,2.3 1.5,1.5 2.3,3.3 2.3,5.5 h -11.5 z m -2.7,-23.3 h 14.2 c 0,2.2 -0.8,4 -2.3,5.5 -1.5,1.5 -3.4,2.3 -5.5,2.3 H 279 c -1.1,0 -2,-0.4 -2.7,-1.1 -0.7,-0.7 -1.1,-1.6 -1.1,-2.7 0,-1.1 0.4,-2 1.1,-2.8 0.8,-0.8 1.7,-1.2 2.8,-1.2 z"
       id="path14"
       inkscape:connector-curvature="0"
       style="clip-rule:evenodd;fill:#005488;fill-rule:evenodd" /><path
       class="st0"
       d="m 315.4,69.1 c -5.4,0 -10,-1.9 -13.9,-5.7 -3.9,-3.8 -5.8,-8.4 -5.8,-13.7 0,-5.4 1.9,-10 5.8,-13.8 3.9,-3.8 8.5,-5.7 13.9,-5.7 h 11.5 c 0,2.1 -0.8,4 -2.3,5.5 -1.5,1.5 -3.3,2.3 -5.5,2.3 h -3.7 c -3.2,0 -5.9,1.2 -8.2,3.5 -2.3,2.3 -3.4,5.1 -3.4,8.3 0,3.2 1.1,6 3.4,8.2 2.3,2.3 5,3.4 8.2,3.4 h 3.7 c 2.1,0 4,0.8 5.5,2.3 1.5,1.5 2.3,3.3 2.3,5.5 h -11.5 z"
       id="path16"
       inkscape:connector-curvature="0"
       style="clip-rule:evenodd;fill:#005488;fill-rule:evenodd" /><path
       class="st0"
       d="m 15.1,46 c 0,8.5 2.7,16.5 7.9,23.2 2,2.6 5.6,3 8.2,1.1 2.6,-2 3,-5.6 1.1,-8.2 -3.6,-4.6 -5.5,-10.2 -5.5,-16 0,-14.5 11.8,-26.4 26.4,-26.4 1.8,0 3.6,0.3 4.8,0.7 0,3.2 0,20.8 0,20.8 0,3.2 2.6,5.9 5.9,5.9 3.2,0 5.9,-2.6 5.9,-5.9 V 18.4 c 0,-2 -0.8,-6.9 -8,-9.2 C 58.2,8 54.4,7.9 53.3,7.9 32.2,7.9 15.1,25 15.1,46 Z"
       id="path18"
       inkscape:connector-curvature="0"
       style="clip-rule:evenodd;fill:#005488;fill-rule:evenodd" /><path
       class="st1"
       d="m 75,22.7 c -2.3,2.2 -2.4,5.9 -0.2,8.3 3.5,3.7 4.8,10.4 4.8,15 0,14.5 -11.8,26.4 -26.4,26.4 -2.1,0 -4,-0.3 -5.1,-0.6 0,-3.2 0,-19.3 0,-19.3 0,-3.2 -2.6,-5.9 -5.9,-5.9 -3.2,0 -5.9,2.6 -5.9,5.9 v 21.3 c 0,2 0.8,7 8.2,9.2 3.4,1 7.1,1.1 8.6,1.1 21,0 38.1,-17.1 38.1,-38.1 0,-3.5 -0.6,-15.3 -8,-23.1 C 81,20.5 77.3,20.5 75,22.7 Z"
       id="path20"
       inkscape:connector-curvature="0"
       style="clip-rule:evenodd;fill:#609422;fill-rule:evenodd" /></g><rect
     style="fill:#ffffff;stroke-width:1.05508649"
     id="rect3720"
     width="1.2829205"
     height="37.846157"
     x="142.40417"
     y="1.3050832" /><text
     xml:space="preserve"
     style="font-style:normal;font-weight:normal;font-size:26.66666667px;line-height:1.25;font-family:sans-serif;letter-spacing:0px;word-spacing:0px;fill:#000000;fill-opacity:1;stroke:none;"
     x="185.38202"
     y="33.943935"
     id="text3724"><tspan
       sodipodi:role="line"
       id="tspan3722"
       x="185.38202"
       y="62.256435" /></text>
<text
     xml:space="preserve"
     style="font-style:normal;font-weight:normal;font-size:32px;line-height:1.25;font-family:sans-serif;letter-spacing:0px;word-spacing:0px;fill:#ffffff;fill-opacity:0.97969544;stroke:#000000;stroke-opacity:1;"
     x="180.25034"
     y="34.585396"
     id="text3728"><tspan
       sodipodi:role="line"
       id="tspan3726"
       x="180.25034"
       y="62.897896" /></text>
<text
     xml:space="preserve"
     style="font-style:normal;font-variant:normal;font-weight:normal;font-stretch:normal;font-size:21.33333397px;line-height:1.25;font-family:sans-serif;-inkscape-font-specification:sans-serif;letter-spacing:0px;word-spacing:0px;fill:#ffffff;fill-opacity:1;stroke:none;stroke-opacity:1"
     x="150.10172"
     y="28.170795"
     id="text4537"><tspan
       sodipodi:role="line"
       id="tspan4535"
       x="150.10172"
       y="28.170795">OpenStack Dashboard</tspan></text>
<text
     xml:space="preserve"
     style="font-style:normal;font-variant:normal;font-weight:bold;font-stretch:normal;font-size:10.66666698px;line-height:1.25;font-family:sans-serif;-inkscape-font-specification:'sans-serif Bold';letter-spacing:0px;word-spacing:0px;fill:#ffffff;fill-opacity:1;stroke:none"
     x="102.63364"
     y="10.209908"
     id="text4541"><tspan
       sodipodi:role="line"
       id="tspan4539"
       x="102.63364"
       y="10.209908">nube</tspan></text>
</svg>