<?xml version="1.0" encoding="UTF-8" standalone="no"?>
<!-- Generator: Adobe Illustrator 21.1.0, SVG Export Plug-In . SVG Version: 6.00 Build 0)  -->

<svg
   xmlns:dc="http://purl.org/dc/elements/1.1/"
   xmlns:cc="http://creativecommons.org/ns#"
   xmlns:rdf="http://www.w3.org/1999/02/22-rdf-syntax-ns#"
   xmlns:svg="http://www.w3.org/2000/svg"
   xmlns="http://www.w3.org/2000/svg"
   xmlns:sodipodi="http://sodipodi.sourceforge.net/DTD/sodipodi-0.dtd"
   xmlns:inkscape="http://www.inkscape.org/namespaces/inkscape"
   version="1.1"
   id="Capa_1"
   x="0px"
   y="0px"
   viewBox="0 0 172 174"
   xml:space="preserve"
   sodipodi:docname="logo-infotec01.svg"
   width="172"
   height="174"
   inkscape:version="0.92.2 5c3e80d, 2017-08-06"><metadata
     id="metadata29"><rdf:RDF><cc:Work
         rdf:about=""><dc:format>image/svg+xml</dc:format><dc:type
           rdf:resource="http://purl.org/dc/dcmitype/StillImage" /><dc:title></dc:title></cc:Work></rdf:RDF></metadata><defs
     id="defs27" /><sodipodi:namedview
     pagecolor="#ffffff"
     bordercolor="#666666"
     borderopacity="1"
     objecttolerance="10"
     gridtolerance="10"
     guidetolerance="10"
     inkscape:pageopacity="0"
     inkscape:pageshadow="2"
     inkscape:window-width="774"
     inkscape:window-height="480"
     id="namedview25"
     showgrid="false"
     inkscape:pagecheckerboard="true"
     inkscape:zoom="1.1979695"
     inkscape:cx="230.76499"
     inkscape:cy="98.5"
     inkscape:window-x="1207"
     inkscape:window-y="659"
     inkscape:window-maximized="0"
     inkscape:current-layer="Capa_1" /><style
     type="text/css"
     id="style2">
	.st0{fill-rule:evenodd;clip-rule:evenodd;fill:#005488;}
	.st1{fill-rule:evenodd;clip-rule:evenodd;fill:#609422;}
</style><g
     id="g22"
     transform="matrix(0.75296835,0,0,0.75296835,-8.6479514,-10.087618)"><path
       class="st0"
       d="m 20.7,150.4 c 0,-2.3 -0.8,-4.3 -2.5,-5.9 -1.6,-1.6 -3.6,-2.5 -5.9,-2.5 v 31.4 c 0,2.3 0.8,4.3 2.5,5.9 1.6,1.6 3.6,2.5 5.9,2.5 z"
       id="path4"
       inkscape:connector-curvature="0"
       style="clip-rule:evenodd;fill:#005488;fill-rule:evenodd" /><path
       class="st0"
       d="m 56.3,162 c 0,-3.2 -1.1,-6.1 -3.4,-8.5 -2.3,-2.4 -5.1,-3.6 -8.3,-3.6 -3.3,0 -6.1,1.2 -8.4,3.6 -2.3,2.4 -3.4,5.2 -3.4,8.5 v 11.5 c 0,2.3 -0.8,4.3 -2.5,5.9 -1.6,1.6 -3.6,2.5 -5.9,2.5 V 162 c 0,-5.5 2,-10.2 5.9,-14.1 3.9,-3.9 8.7,-5.8 14.2,-5.8 5.5,0 10.2,1.9 14.2,5.8 3.9,3.9 5.9,8.6 5.9,14.1 v 19.8 c -2.3,0 -4.3,-0.8 -5.9,-2.5 -1.6,-1.6 -2.5,-3.6 -2.5,-5.9 V 162 Z"
       id="path6"
       inkscape:connector-curvature="0"
       style="clip-rule:evenodd;fill:#005488;fill-rule:evenodd" /><path
       class="st0"
       d="m 85.2,158 h 14.6 c 0,2.2 -0.8,4.1 -2.3,5.6 -1.6,1.5 -3.4,2.3 -5.6,2.3 h -6.6 c -1.1,0 -2,-0.4 -2.8,-1.1 -0.8,-0.7 -1.1,-1.7 -1.1,-2.8 0,-1.1 0.4,-2.1 1.1,-2.9 0.6,-0.7 1.5,-1.1 2.7,-1.1 z m -9,3.9 c 0,-3.3 1.1,-6.1 3.4,-8.4 2.3,-2.3 5.1,-3.5 8.4,-3.5 h 3.8 c 2.2,0 4.1,-0.8 5.6,-2.3 1.5,-1.5 2.3,-3.4 2.3,-5.6 H 88 c -5.5,0 -10.2,1.9 -14.2,5.8 -4,3.9 -5.9,8.5 -5.9,14.1 v 19.9 c 2.3,0 4.3,-0.8 5.9,-2.5 1.6,-1.6 2.5,-3.6 2.5,-5.9 v -11.6 z"
       id="path8"
       inkscape:connector-curvature="0"
       style="clip-rule:evenodd;fill:#005488;fill-rule:evenodd" /><path
       class="st0"
       d="m 120.9,142.1 c 5.5,0 10.2,1.9 14.2,5.8 4,3.9 5.9,8.6 5.9,14.1 0,5.5 -2,10.2 -5.9,14.1 -4,3.9 -8.7,5.8 -14.2,5.8 -5.5,0 -10.2,-1.9 -14.2,-5.8 -3.9,-3.9 -5.9,-8.6 -5.9,-14.1 0,-5.5 2,-10.2 5.9,-14.1 3.9,-3.9 8.7,-5.8 14.2,-5.8 z m 0,7.9 c -3.3,0 -6.1,1.2 -8.3,3.6 -2.3,2.4 -3.4,5.2 -3.4,8.5 0,3.3 1.1,6.1 3.4,8.4 2.3,2.3 5.1,3.5 8.3,3.5 3.3,0 6.1,-1.2 8.4,-3.5 2.3,-2.3 3.4,-5.1 3.4,-8.4 0,-3.3 -1.1,-6.1 -3.4,-8.5 -2.4,-2.5 -5.2,-3.6 -8.4,-3.6 z"
       id="path10"
       inkscape:connector-curvature="0"
       style="clip-rule:evenodd;fill:#005488;fill-rule:evenodd" /><path
       class="st0"
       d="m 176.2,142.7 c 0,2.2 -0.8,4.1 -2.3,5.6 -1.5,1.5 -3.4,2.3 -5.6,2.3 h -8 v 31.3 c -2.3,0 -4.3,-0.8 -5.9,-2.5 -1.6,-1.6 -2.5,-3.6 -2.5,-5.9 v -22.9 h -8 c -2.2,0 -4.1,-0.8 -5.6,-2.3 -1.5,-1.5 -2.3,-3.4 -2.3,-5.6 z"
       id="path12"
       inkscape:connector-curvature="0"
       style="clip-rule:evenodd;fill:#005488;fill-rule:evenodd" /><path
       class="st0"
       d="m 194.3,181.8 c -5.5,0 -10.2,-1.9 -14.2,-5.8 -3.9,-3.9 -5.9,-8.6 -5.9,-14.1 0,-5.5 2,-10.2 5.9,-14.1 3.9,-3.9 8.7,-5.8 14.2,-5.8 h 11.8 c 0,2.2 -0.8,4.1 -2.3,5.6 -1.6,1.5 -3.4,2.3 -5.6,2.3 h -3.8 c -3.2,0 -6,1.2 -8.3,3.6 -2.3,2.4 -3.4,5.2 -3.4,8.5 0,3.2 1.1,6.1 3.4,8.4 2.3,2.4 5.1,3.5 8.3,3.5 h 3.8 c 2.2,0 4.1,0.8 5.6,2.3 1.6,1.5 2.3,3.4 2.3,5.6 z M 191.5,158 h 14.6 c 0,2.2 -0.8,4.1 -2.3,5.6 -1.6,1.5 -3.4,2.3 -5.6,2.3 h -6.6 c -1.1,0 -2,-0.4 -2.8,-1.1 -0.8,-0.7 -1.1,-1.7 -1.1,-2.8 0,-1.1 0.4,-2.1 1.1,-2.9 0.7,-0.7 1.6,-1.1 2.7,-1.1 z"
       id="path14"
       inkscape:connector-curvature="0"
       style="clip-rule:evenodd;fill:#005488;fill-rule:evenodd" /><path
       class="st0"
       d="m 227,181.8 c -5.5,0 -10.2,-1.9 -14.2,-5.8 -3.9,-3.9 -5.9,-8.6 -5.9,-14.1 0,-5.5 2,-10.2 5.9,-14.1 3.9,-3.9 8.7,-5.8 14.2,-5.8 h 11.7 c 0,2.2 -0.8,4.1 -2.3,5.6 -1.5,1.5 -3.4,2.3 -5.6,2.3 H 227 c -3.3,0 -6.1,1.2 -8.4,3.6 -2.3,2.4 -3.5,5.2 -3.5,8.5 0,3.3 1.2,6.1 3.5,8.4 2.3,2.3 5.1,3.5 8.4,3.5 h 3.8 c 2.2,0 4.1,0.8 5.6,2.3 1.5,1.5 2.3,3.4 2.3,5.6 z"
       id="path16"
       inkscape:connector-curvature="0"
       style="clip-rule:evenodd;fill:#005488;fill-rule:evenodd" /><path
       class="st0"
       d="m 69.6,71.1 c 0,12.4 4,24.2 11.6,34 2.9,3.8 8.3,4.5 12.1,1.6 3.8,-2.9 4.5,-8.3 1.6,-12.1 -5.2,-6.8 -8,-15 -8,-23.6 0,-21.4 17.4,-38.7 38.7,-38.7 2.7,0 5.3,0.5 7,1 0,4.7 0,30.6 0,30.6 0,4.8 3.9,8.6 8.6,8.6 4.7,0 8.6,-3.9 8.6,-8.6 V 30.5 c 0,-2.9 -1.1,-10.1 -11.7,-13.5 -5.3,-1.7 -10.9,-1.9 -12.5,-1.9 -31,0.1 -56,25.1 -56,56 z"
       id="path18"
       inkscape:connector-curvature="0"
       style="clip-rule:evenodd;fill:#005488;fill-rule:evenodd" /><path
       class="st1"
       d="m 157.5,36.8 c -3.4,3.3 -3.6,8.7 -0.3,12.2 5.2,5.4 7,15.3 7,22.1 0,21.4 -17.4,38.7 -38.7,38.7 -3.1,0 -5.8,-0.4 -7.5,-0.9 0,-4.7 0,-28.3 0,-28.3 0,-4.8 -3.9,-8.6 -8.6,-8.6 -4.8,0 -8.6,3.9 -8.6,8.6 v 31.2 c 0,3 1.2,10.3 12.1,13.5 5,1.5 10.5,1.6 12.6,1.6 30.8,0 55.9,-25.1 55.9,-55.9 0,-5.1 -0.8,-22.5 -11.7,-33.9 -3.3,-3.4 -8.8,-3.5 -12.2,-0.3 z"
       id="path20"
       inkscape:connector-curvature="0"
       style="clip-rule:evenodd;fill:#609422;fill-rule:evenodd" /></g><text
     xml:space="preserve"
     style="font-style:normal;font-weight:normal;font-size:14.66666698px;line-height:1.25;font-family:sans-serif;letter-spacing:0px;word-spacing:0px;fill:#005488;fill-opacity:1;stroke:none"
     x="5.0084743"
     y="163.1483"
     id="text33"><tspan
       sodipodi:role="line"
       id="tspan31"
       x="5.0084743"
       y="163.1483">OpenStack Dashboard</tspan></text>
<text
     xml:space="preserve"
     style="font-style:normal;font-variant:normal;font-weight:bold;font-stretch:normal;font-size:14.66666698px;line-height:1.25;font-family:sans-serif;-inkscape-font-specification:'sans-serif Bold';letter-spacing:0px;word-spacing:0px;fill:#005488;fill-opacity:1;stroke:none"
     x="128.55084"
     y="88.021187"
     id="text845"><tspan
       sodipodi:role="line"
       id="tspan843"
       x="128.55084"
       y="88.021187">nube</tspan></text>
</svg>